<svg aria-hidden="true" style="position:absolute;width:0;height:0" xmlns="http://www.w3.org/2000/svg" overflow="hidden"><defs><symbol id="icon-logo-3" viewBox="0 0 47 32"><path fill="var(--color1, #fff)" d="M17.764 1.364c.261.253.261.253 0 0zm12.708 5.537c.114.109.114.109 0 0zm-8.611 23.941c.253.248.253.248 0 0z"/><path fill="var(--color2, #333)" d="M18.295 0h.623c-.025.211-.067.636-.088.846-.328.779-.661 1.554-1.053 2.303-.556-.358-1.141-.392-1.714-.013-.337-1.562 1.558-2.013 2.232-3.137zm-.531 1.364c.261.253.261.253 0 0zM22.501 0h.522c-.341.909-.463 1.874-.577 2.834.417-.307 1.255-.922 1.676-1.234.008.168.021.509.025.678.194.905.838-.724 1.234-.884l.977-.067c.632-.754 1.524-.695 2.316-.198-.434.118-1.301.349-1.731.467l.282.476-1.385-.076c.013.354.034 1.069.046 1.427-.211-.152-.627-.455-.838-.606-.964.337-1.979.48-2.998.509l.164-.754c-1.259.846-2.792.547-4.211.505.522-.417.846-1.453 1.667-1.305.349.067.295.539.594.669.522-.451.219-1.478.947-1.781.497-.084 1.095-.088 1.288-.661zm-1.6 2.535c.518.143 1.019-.665.766-1.107-.535-.156-1.048.661-.766 1.107zm-9.469-.96c.366-.198.724-.413 1.078-.636.358.265.716.526 1.078.787-.185.421-.345.855-.472 1.301-.484.021-.977.093-1.461 0 .379-.682-.821-.884-.223-1.453zm20.745.139c.4-.244.775-.531 1.166-.792.366.269.737.531 1.107.792-.168.442-.341.884-.509 1.326-.417.008-.834.017-1.246.029a71.417 71.417 0 00-.518-1.356z"/><path fill="var(--color2, #333)" d="M26.547 3.192c.484-.636.981-1.263 1.545-1.832-.16.392-.488 1.175-.648 1.566l2.762-1.465-2.076 1.141c.497.067 1.491.206 1.987.274-1.154.358-2.379.282-3.571.316zm-.24-.464c.126.126.126.126 0 0zM4.674 5.326c.771-.013 1.537-.021 2.303-.034-.303.269-.615.535-.922.796.025.328.08.989.109 1.322a16.38 16.38 0 01-.493.042c.004-.522.008-1.048.008-1.571-.248-.139-.754-.417-1.006-.556zm2.64-.147c.257.227.518.446.779.661.194-.181.581-.543.775-.728a11.418 11.418 0 00-.067 2.632 4.141 4.141 0 00-.653-1.086 6.558 6.558 0 00-.922.947c.055-.808.08-1.617.088-2.425zm5.591 2.324c-.665-.749-.615-2.333.665-2.261 1.2-.152 1.086 1.246 1.011 2.046-.556.076-1.116.147-1.676.215zm.228-1.524c-.602.585.425 1.486.956.872.564-.585-.425-1.524-.956-.872zm2.185-.842c.522.189 1.044.387 1.558.598.219-.244.429-.484.644-.724.324.371.636.745.947 1.124.32-.981 1.246-.909 2.038-.728-.682.274-1.364.564-1.861 1.124.312.185.943.556 1.255.737.025-.358.067-1.082.088-1.44.337.472.324 1.061.543 1.579-.72-.013-1.44-.051-2.152-.143l.467-.455c-.274-.08-.817-.244-1.086-.324l.223.973-.547-.017c.029-.278.08-.834.109-1.107h-1.023c.114.291.345.867.459 1.158l-.888-.232c-.198.076-.602.227-.8.307 0-.813.008-1.621.025-2.429zm.29.8c.029.943 1.394.017.324-.211l-.324.211zm6.468-.926c.413.484.808.981 1.2 1.482.164-.514.345-1.019.539-1.524.051.935.034 1.869-.008 2.804-.396-.484-.787-.973-1.175-1.465a29.344 29.344 0 01-.577 1.528 33.27 33.27 0 01.021-2.825zm3.322.143c.518.745.863 1.596 1.326 2.375-.817-.451-1.688-.855-2.408.025.164-.408.328-.817.488-1.225.185-.4.383-.792.594-1.175zm4.362.139c.522.013 1.044.029 1.566.051.046.682.097 1.36.143 2.046-.568.029-1.137.059-1.705.084-.004-.728-.004-1.457-.004-2.181zm.712 1.608c.114.109.114.109 0 0zm1.663-1.608c.425 0 .851 0 1.276-.004.156.152.459.451.611.602-.307.552-.564 1.112-.568 1.76-.354-.387-.707-.779-1.065-1.158l-.404 1.352c.021-.851.093-1.701.152-2.552zm.273.682c.156.931 1.389-.16.299-.248l-.299.248zm1.676 1.663c.4-.817.589-1.798 1.267-2.438.417.779.749 1.596 1.091 2.408a90.424 90.424 0 00-1.394-.783c-.244.202-.724.611-.964.813zm2.712-2.623c.421.48.821.973 1.221 1.469a43.2 43.2 0 01.535-1.503c.046.926.042 1.853.017 2.779a56.057 56.057 0 01-1.255-1.554c-.076.413-.223 1.234-.299 1.642-.307-.914-.261-1.886-.219-2.834zm2.497.109c.695.215 1.979.164 1.903 1.192.063 1.095-1.137 1.095-1.903 1.288a41.012 41.012 0 010-2.48zm.539.918c-.236.699-.013.947.669.745.24-.691.017-.939-.669-.745zM9.465 7.398c.202-.838-.278-2.109.901-2.421l-.185 1.204c.286.029.859.084 1.145.114-.408.139-1.225.413-1.634.552.362.067 1.082.211 1.444.282l.067.349c-.581-.025-1.162-.051-1.739-.08zm11.6-1.95c.585.147.501 1.752-.004 1.971-.282-.589-.295-1.385.004-1.971zm6.202 1.925c-.442-.324-.72-1.545-.114-1.709.257.602.509 1.204 1.011 1.655-.211.291-.509.312-.897.055zm14.666 2.32a56.914 56.914 0 004.261-1.065c0 .964.004 1.924.013 2.888-.716.152-1.432.307-2.143.459.008 1.571.008 3.137.008 4.707l1.558-.126a379.767 379.767 0 000 3.019l-1.562.025c.004 1.667.004 3.339 0 5.006.703.08 1.406.16 2.114.244.013.96.017 1.924.021 2.884-1.432-.24-2.851-.518-4.282-.749.004-5.764-.017-11.528.013-17.293zm-40.826-1.2c1.503.446 3.389.669 4.185 2.232 1.103 2.185 1.099 4.918-.021 7.099 1.192 2 1.015 4.404.775 6.632-.139 1.061-.627 2.211-1.646 2.699-1.053.392-2.189.463-3.293.653.004-6.438 0-12.876 0-19.314zm2.19 3.014c-.114 1.823-.126 3.655.017 5.474.253-.442.665-.838.678-1.381.042-1.373.337-2.985-.695-4.093zm.025 7.255a42.908 42.908 0 000 6.333c.526-.678.758-1.495.712-2.345-.051-1.343.316-2.901-.712-3.987zm4.185-8.644a105.5 105.5 0 012.257.307c-.008 4.602.017 9.2-.013 13.798.762-.042 1.524-.088 2.286-.131-.008.707-.013 1.419-.021 2.126-1.512.122-3.011.337-4.509.539.004-5.545 0-11.095 0-16.64zm30.741.303c.669-.122 1.335-.244 2.004-.371.013 5.558-.017 11.116.013 16.678-.429-.038-1.284-.109-1.714-.143-.653-2.522-1.095-5.091-1.604-7.646-.198 2.459-.046 4.922-.076 7.381-.674-.059-1.347-.118-2.021-.181-.013-5.078-.008-10.16-.004-15.242l1.844-.215c.535 2.261.981 4.543 1.478 6.817.147-2.358.088-4.72.08-7.078zm-25.435.556l2.202.177c0 3.869-.013 7.739 0 11.608-.126.619.215 1.057.72 1.356.278-4.299.051-8.615.126-12.922.733.088 1.461.181 2.194.274-.072 4.139.084 8.286-.072 12.421-.152 1.933-2.611 2.686-4.143 1.861-.851-.556-1.032-1.634-1.023-2.573-.008-4.067.017-8.135-.004-12.202zm18.231.307c.737-.051 1.478-.101 2.219-.147a526.225 526.225 0 00-.004 14.813c-.741-.042-1.482-.088-2.219-.131.004-4.846-.004-9.688.004-14.535zm-11.356.265c1.503.046 3.011.084 4.518.097-.004.703-.004 1.402-.008 2.105l-2.202-.051c-.004 1.225-.004 2.446-.004 3.672h1.549c0 .745.004 1.495.008 2.24-.522 0-1.04 0-1.558.004 0 1.284 0 2.568-.004 3.853l2.211-.021c0 .703.004 1.406.008 2.109-1.507 0-3.015.025-4.522.042.013-4.682.013-9.368.004-14.051zm5.79.068c.737-.025 1.474-.051 2.211-.08-.008 4.055 0 8.114-.008 12.168l2.362.076c-.004.669-.013 1.343-.017 2.013a82.165 82.165 0 00-4.547-.223c.017-4.648.017-9.301 0-13.954zm-7.844 18.686c.488-.926 1.537-1.032 2.472-.897-.375.143-1.124.434-1.499.577-.421.766.935.796 1.293 1.225.101-.4.299-1.196.4-1.592-.004.278-.017.834-.021 1.112 1.107-.248 2.253-.177 3.373-.303-.223.181-.674.539-.901.716.269.084.813.244 1.082.324-2.236-.147-4.472-.088-6.703-.021l1.895-.488c-.345-.164-1.04-.488-1.389-.653zm4.227.539c.253.248.253.248 0 0zm-9.25-.286c1.402-.232 2.821-.156 4.227-.067l-1.011.265a5.97 5.97 0 01-3.217-.198zm16.652.135c1.402-.421 2.893-.341 4.32-.122-1.389.463-2.893.349-4.32.122z"/></symbol><symbol id="icon-logo-4" viewBox="0 0 37 32"><path fill="var(--color1, #fff)" d="M13.945 15.716c.203.213.203.213 0 0zm5.202 8.487c.548-.199.736.004.565.604-.551.199-.74-.004-.565-.604zM6.13 25.518c-.313-.427-.228-.668.256-.732.313.427.228.672-.256.732zm18.126 4.846c.213.206.213.206 0 0z"/><path fill="var(--color3, #4a4a4a)" d="M12.825.619C13.828.182 14.944.391 16 .402c-.26.142-.786.43-1.049.572.036 1.266.437 2.485.508 3.744l-.48.082c-.772-.921-.562-2.432-.882-3.595-.572.036-.996-.16-1.273-.587zM21.39.356c.864.092 2.197-.363 2.542.757.334.704-.37 1.22-.715 1.739-.018.807.665 1.998-.452 2.329-.178-.946-.249-1.931-.715-2.795-.409.747-.178 1.966-1.052 2.368-.356-.348-.21-.85-.153-1.276.181-1.042.377-2.08.544-3.122zm.733.679c-.011.284-.028.85-.036 1.131.217-.068.654-.203.875-.27.676-.505-.395-1.344-.839-.86zM8.558 2.869c-.036-1.284 1.913-1.945 2.556-.754-.078.206-.238.619-.316.828-.213-.213-.644-.636-.857-.846-.181.203-.54.615-.722.818.978.484 2.674.345 2.93 1.689.231 1.604-2.784 2.098-2.699.288.679.103 1.746.786 2.002-.274-.86-.789-2.645-.345-2.894-1.749zm17.639-1.28c.956-.412 1.842.281 2.677.654a145.5 145.5 0 00-1.17.491 84.076 84.076 0 00-1.056 2.464l.583 1.113c-.91-.21-1.884-.448-2.514-1.198l1.152-.185c.359-.878.725-1.753 1.106-2.62l-.779-.718zM5.38 3.63c.124.007.366.025.491.036.75.853 1.412 1.796 1.973 2.788.576 1.017-.729 2.304-1.756 1.813-.732-.359-1.092-1.17-1.589-1.778-.316-.576-1.109-1.163-.572-1.845 1.205.736 1.536 2.332 2.777 3.015l.533-.576c-.405-1.248-1.941-2.112-1.856-3.452zm23.146 3.559c.875-1.276 1.742-2.564 2.706-3.776.676.601 1.87 1.131 1.554 2.244-.42.864-.964 1.7-1.682 2.347-.939.651-1.845-.309-2.578-.814zm1.01.007l1.003.199c.715-.807 1.998-1.902 1.067-3.008-.772.875-1.429 1.838-2.069 2.809zm2.524 2.799c1.131-1.035 2.268-2.073 3.445-3.058.501.555 1.006 1.106 1.472 1.696v.764c-.519-.448-1.045-.885-1.564-1.333-.146.128-.437.38-.583.505.327.597.658 1.209.715 1.906a46.424 46.424 0 01-1.419-1.234c-.292.256-.583.512-.878.764.402.629.793 1.262 1.116 1.934-.96-.395-1.646-1.177-2.304-1.945zM0 8.75a31.56 31.56 0 011.38-1.582c.978.917 2.229 1.628 2.901 2.816.348 1.415-1.369 2.204-2.443 1.44.352-.633 1.177-.555 1.753-.846-.395-.967-1.34-1.529-2.062-2.233C1.028 8.69.519 9.028 0 9.348v-.597zm18.887.118c.469-.203.928-.441 1.426-.565.9.06 1.557.825 2.297 1.252l-.58-1.234c.679-.192 1.33-.121 1.664.569.06.619.263 1.195.608 1.724.103-.772.11-1.547.142-2.322.43.558.373 1.273.423 1.934-.327.306-.651.615-.953.946l-.242-1.323c-.377.302-.757.594-1.145.878-.324.661-.636 1.326-.953 1.988-.014.839-.117 1.675-.434 2.46l-.487.718-.967-.199.053.508c-1.714.064-3.428.043-5.141-.004-.462.949-1.056 1.938-2.091 2.332-1.998.839-4.594-.665-4.558-2.905-.213-1.508.868-2.763 2.123-3.428l-.27.644c-2.126.7-2.13 3.993-.359 5.106 1.717 1.34 4.629.206 4.796-2.03-.988 1.01-2.027 2.219-3.602 2.062-1.177-.629-2.393-1.984-1.739-3.396.398-1.404 1.98-1.828 3.275-1.678l.071-.679-1.522.256c-.224-.135-.441-.27-.658-.412a16.355 16.355 0 012.332.068l.715-1.042c-.846-.128-1.948.274-2.553-.537a63.62 63.62 0 015.127.352c-2.016.103-.21 1.863-.05 2.798.455-.928.939-1.863 1.063-2.901a34.978 34.978 0 01-1.831-.171c1.6.092 2.731-1.035 4.018-1.771zm.366-.111c.235.715.455 1.429.647 2.158.341-.014 1.024-.036 1.369-.046-.249.267-.501.526-.761.782-.22.21-.444.416-.668.622-.121-.284-.359-.857-.48-1.141l.132.871c-.348 0-1.045.007-1.394.011.832 1.145 2.233.27 3.339.167l.526-.996c-.299-.156-.59-.316-.885-.476l.676-.199c.971-1.664-1.397-1.959-2.5-1.753zm-2.161 1.501c.014.089.036.263.046.352.793.466 1.764.235 2.635.292-.16-.587-.32-1.173-.476-1.76-.736.366-1.483.718-2.204 1.116zm-3.833 2.29l.21.594-.747-.117c.213.327.644.978.857 1.305.068-.174.199-.519.267-.69a2.13 2.13 0 001.465.242c-.366-1.028-.821-2.027-1.444-2.93-.206.533-.405 1.067-.608 1.596zm3.377.384c.612.039.999-.907.811-1.419-.562.018-.914.921-.811 1.419zm3.976-.146c-.569 1.077 1.191.096 0 0zm-9.54.416c-.658.107-.356 1.152.256.942.644-.132.377-1.152-.256-.942zm6.791-.004c.107 1.22 1.028-.58 0 0zm-2.507 1.138c.629.032 1.252.167 1.813.462.338-.32.668-.644.996-.971-.491-.16-.981-.316-1.468-.48-.437.345-.882.676-1.34.988zm-5.713-.32c-.22.565-.028.764.569.597.213-.569.025-.768-.569-.597zm8.942.036c-.494.86 1.28 1.035 1.23.178-.274-.338-.864-.38-1.23-.178zm-6.535.91l.718.128a9.636 9.636 0 00-.05.288c-.313.06-.935.178-1.248.235.025-.213.071-.644.096-.86-.302.309-.597.622-.903.924.871.124 1.735.281 2.613.348l.028-.644c.37-.366 1.056.299 1.525.38 1.483.028 3.14.722 4.487-.153-.953-.089-1.913-.014-2.862-.1-1.454-.409-2.827-1.052-4.228-1.611-.046.267-.135.8-.178 1.063zm6.3.153l-.213-.597c-.967-.146-.48 1.284.213.597zm-9.411.025c.437.939.8 2.062 1.899 2.4.004-.203.007-.612.007-.814-.516-.306-1.575-.74-.729-1.547-.295-.011-.882-.028-1.177-.039zm5.006.576c.203.213.203.213 0 0zm-2.393 1.073c-.007.139-.018.416-.021.558.988.786 1.006-1.536.021-.558z"/><path fill="var(--color3, #4a4a4a)" d="M10.638 10.101c1.532-.821 3.374-.277 4.946.142-1.646-.117-3.292-.26-4.946-.142zm3.542 10.255c1.536-.676 3.175-1.06 4.782-1.529l-.619 1.148c1.148-.156 2.3-.299 3.46-.345-1.575.565-3.182 1.042-4.772 1.575.149-.331.448-.988.594-1.316-1.148.16-2.293.341-3.445.466zm-8.676 2.855a94.252 94.252 0 011.504 0c.245 1.255.487 2.51.629 3.783-.484-.21-.964-.437-1.44-.661a93.46 93.46 0 01-1.337.686c.174-1.276.43-2.539.644-3.808zm.626 2.307c.484-.06.569-.306.256-.732-.484.064-.569.306-.256.732zm12.124-2.332c.754.089 1.664-.181 2.283.37.391.597.046 1.255-.11 1.863.121.508.238 1.017.359 1.529-1.01.153-1.269-.665-1.497-1.44a78.58 78.58 0 01-.132 1.372 93.594 93.594 0 00-.914-.068c.007-1.209.004-2.418.011-3.627zm.893 1.017c-.174.601.014.804.565.604.171-.601-.018-.804-.565-.604zm3.559-.847c.384-.277.981-.103 1.44-.196.277 1.259.501 2.532.676 3.808a94.64 94.64 0 00-1.39-.583c-.487.164-.953.384-1.433.565.242-1.195.366-2.421.708-3.595zm3.616.512c.331-.821 1.28-.672 1.991-.7.014.231.046.686.06.917l-1.17.156c.071.476-.164 1.07.153 1.476.267.164.793.491 1.056.654.046.85-1.191.498-1.675.356-.811-.683-.743-1.945-.416-2.859zm6.883-.686c.772.075 1.66-.146 2.322.366.334.64.004 1.316-.149 1.952l.388 1.429c-1.024.185-1.301-.658-1.568-1.429l.014 1.305c-.338.018-.676.032-1.013.046 0-1.223-.004-2.446.007-3.669zm.907 1.006c-.188.597-.004.804.555.619.185-.594 0-.8-.555-.619zm-32.373-.465c.348-.693 1.212-.587 1.849-.491l.1.974-1.145.018c-.007.516-.014 1.035-.018 1.554.644.103 1.209.327 1.305 1.06-.69-.078-1.696.302-2.105-.484-.416-.796-.402-1.838.014-2.631zm7.338-.523c.718.004 1.436.014 2.158.039-.16.668-.597 1.042-1.319 1.124.299.139.9.412 1.198.551-.341.242-.668.498-.996.757-.011.391-.018.786-.028 1.18a86.756 86.756 0 00-1.02-.021c.004-1.209 0-2.421.007-3.63zm3.328-.007c.754.014 1.508.039 2.258.096-.142.686-.821.832-1.323 1.131.416.199.8.444 1.156.732-.427.217-.85.434-1.273.654l1.294.309c-.036.181-.11.548-.149.732-.654-.007-1.308-.011-1.963-.014v-3.641zm17.337-.004c.732.011 1.468.032 2.204.078-.117.693-.8.91-1.351 1.106.263.281 1.269.235.978.789-.32.256-.647.505-.981.747l1.234.171-.142.757c-.651.004-1.298.004-1.948.004 0-1.216 0-2.432.007-3.652zM3.765 31.022c.199-1.134.853-2.279 2.148-2.265-.057.256-.178.764-.238 1.017-.149-.174-.448-.526-.594-.7a25.327 25.327 0 00-.932 1.732 5.938 5.938 0 001.863-.924c-.032.281-.089.846-.117 1.127.142-.281.43-.843.572-1.12.299.395.604.789.914 1.177-.092-.338-.281-1.017-.373-1.355.206.206.612.622.818.832l.48-1.02c.21.537-.064 1.07-.164 1.596-1.461-.064-2.919-.064-4.377-.096zm8.996-1.479c.615-.633 2.052-1.18 2.45-.021a84.131 84.131 0 00-.868-.05l.146-.377c-.572.156-1.145.32-1.728.448z"/><path fill="var(--color3, #4a4a4a)" d="M18.069 28.708c-.16.587-.487 1.756-.647 2.343l1.28-1.963c.135.42.274.839.416 1.259l-.935-.071.704.69c-1.291.139-2.585.1-3.879.121l-.203-.402c-.644.235-1.301.43-1.973.576.235-.43.469-.857.708-1.284l.388.558c.416-.196.839-.373 1.269-.533l.053.939c.114-.139.334-.42.448-.558.334-.011.672-.025 1.006-.043l.224.512c.356-.729.718-1.454 1.141-2.144zm1.558 2.659c.43-.946.956-1.842 1.504-2.724l.1 1.337.967-1.284c-.039.875-.085 1.756-.252 2.62a205.62 205.62 0 00-.206-1.461l-.761 1.116a84.774 84.774 0 00-.089-1.045c-.395.501-.804.996-1.262 1.44zm11.143-1.28c.284-.459.58-.91.907-1.337-.235.747-.562 1.458-.857 2.183.487-.43.981-.853 1.486-1.262-.039.249-.124.754-.164 1.006l.871.114-.284-1.127c.316.434.612.882.903 1.333-1.138.092-2.276.06-3.413.025l.274-.64-.764-.555 1.042.26zm-6.994.011c.252-.359.501-.718.754-1.077-.014.206-.05.612-.068.818a7.63 7.63 0 011.312.352c.587-.26 1.202-.171 1.764.121l-.085.306-.103.256c-.494.341-1.191.057-1.756.139a38.7 38.7 0 00-.718-.949l.313 1.042c-1.028-.117-2.059-.028-3.086-.085.405-.263.821-.516 1.23-.779l-1.063-.21a5.224 5.224 0 011.508.068zm.48.266c.213.206.213.206 0 0zm-10.254-.718c.096.096.096.096 0 0zm2.784.061c.228.171.228.171 0 0zm-6.774 1.255c-.188-.32-1.607-1.109-.572-1.084.139.082.416.245.551.327a26.16 26.16 0 011.956-.38c-.05.53-.103 1.056-.171 1.582-.114-.192-.341-.576-.455-.772-.437.107-.875.21-1.308.327zm17.693-1.017c.206.217.206.217 0 0z"/><path fill="var(--color3, #4a4a4a)" d="M28.004 30.407c.679-.064 1.365-.075 2.048-.1l.004.601c-.693.167-1.234.619-1.746 1.092h-.228c.117-.196.356-.59.476-.789-.096-.089-.284-.274-.38-.366-.043-.107-.132-.327-.174-.437zm-19.336.306c.096.092.096.092 0 0z"/></symbol><symbol id="icon-logo-5" viewBox="0 0 55 32"><path fill="var(--color1, #fff)" d="M35.32 29.61c.505.73.795 1.565 1.085 2.39H35.08c.065-.8.145-1.595.24-2.39z"/><path fill="var(--color4, #363636)" d="M9.125 0h.645c-.1 1.41-.1 2.825-.125 4.235.35.18 1.055.535 1.41.71-.675.08-1.345.15-2.02.215-.105-1.715-.14-3.45.09-5.16zm2.78 0h1.865c-.5.465-1 .925-1.505 1.38.505.43.995.88 1.455 1.36-.405.185-1.205.55-1.605.735.555.545 1.12 1.085 1.69 1.62-.645.005-1.29.01-1.935.01-.01-1.7-.01-3.405.035-5.105zm2.94 0h1.93c-1.03 1.43-.63 3.23-.645 4.865-.19.015-.565.045-.755.065-.005-1.65.24-3.4-.53-4.93zm2.965 0h1.905c-.865 1.5-.57 3.27-.605 4.92h-.73c-.025-1.65.23-3.4-.57-4.92zm3.09 0h2.015c-.575.43-1.14.87-1.7 1.32.485.43.975.865 1.46 1.3l-1.035.64c-.39.905.705 1.32 1.165 1.885-.485-.015-1.45-.045-1.935-.065-.01-1.69-.01-3.385.03-5.08zm6.725 0H29.1c.28.485.805.915.785 1.52.125 1.055-1.13 1.315-1.765 1.87.035.38.11 1.14.145 1.52-.215.01-.645.025-.86.03.03-1.65.085-3.295.22-4.94zm.63.96c-.62.475-.065 1.875.72 1.265.71-.455.055-1.91-.72-1.265zm6.43-.96h1.875c-.605.51-1.18 1.05-1.765 1.58.545.325 1.1.635 1.665.935-.295.2-.875.605-1.17.81-.565.91.74 1.225 1.2 1.78h-1.92c-.115-1.7-.17-3.415.115-5.105zm3.22 0h1.005c.27.65.535 1.3.795 1.95-.695-.455-1.4-.91-2.115-1.34.42 1.42 2.6 2.87 1.41 4.37-1.225.235-1.975-.435-2.125-1.69.525.345 1.575 1.04 2.1 1.39-.54-1.225-1.305-2.325-1.885-3.525L37.905 0zm3.47 0h.97c.275.665.57 1.33.855 1.99-.705-.47-1.41-.94-2.125-1.39.58 1.18 1.35 2.26 1.925 3.445-.235.475-.57.86-1.01 1.16-1.03-.09-1.325-1.135-1.76-1.89.73.435 1.445.895 2.16 1.345-.54-1.22-1.315-2.315-1.82-3.55.2-.28.605-.835.805-1.11zM24.47.01c.08.815.125 1.63.175 2.45.2-.11.6-.325.8-.43-.26-.75.175-1.39.62-1.915-.02 1.755.475 3.63-.22 5.3-.34-.92-.07-2.275-1.225-2.665-.03.72-.05 1.44-.06 2.165l-.715.055c.105-1.655-.425-3.5.625-4.96zm6.46.545c1.49-.655.48 1.47.805 2.145.805-.685.99-1.53.335-2.44.275.155.825.455 1.1.61-.03 1.515.34 3.14-.31 4.57-.35-.915-.015-2.325-1.215-2.67-.03.715-.05 1.435-.06 2.15l-.725.035c.005-1.465-.055-2.935.07-4.4zM0 7.725c18.335.005 36.665 0 55 0v1.04c-18.335 0-36.665-.01-55 .005V7.725zm8.215 4c1.345-.395 3.05.25 3.285 1.76.285 1.815.29 3.7 0 5.515-.335 2.27-3.995 2.545-4.775.465-.48-1.775-.355-3.665-.21-5.48.04-1.01.65-2.05 1.7-2.26zm.245 1.41c-.405 2.125-.22 4.325-.04 6.47l1.27-.465c.12-1.985.44-4.14-.19-6.05-.26.01-.78.035-1.04.045zm5.125-1.34h1.76c.02 2.245-.095 4.49.04 6.73-.155.86.865.815 1.395 1.01.235-2.56.11-5.135.115-7.705.47-.01 1.4-.035 1.865-.05-.075 2.42.15 4.855-.14 7.26-.375 2.425-4.58 2.48-4.885.005-.315-2.405-.07-4.84-.15-7.25zm23.585-.06c1.38-.42 3.085.25 3.355 1.785.24 1.8.25 3.66-.005 5.465-.365 2.215-3.865 2.585-4.755.59-.605-1.62-.36-3.4-.35-5.09.02-1.125.53-2.485 1.755-2.75zm.315 1.41c-.48 1.73-.245 3.565-.22 5.335-.085.74.525 1.095 1.2.95.66-1.185.3-2.625.395-3.92-.025-.95.19-3-1.375-2.365zm5.115.405c.28-2.165 3.58-2.61 4.645-.84.395.745.395 1.615.545 2.425-.44.005-1.325.01-1.77.01.07-.945-.38-2.96-1.62-1.715a22.382 22.382 0 00-.005 5.695c1.24 1.045 1.635-.695 1.67-1.64-.305-.045-.915-.135-1.22-.185l.035-1.165c.95-.01 1.895-.015 2.845-.02-.005 1.555 0 3.115-.01 4.67l-1.565-.345c-1.13.565-2.785.605-3.315-.795-.675-1.935-.505-4.095-.235-6.095zm8.61-1.77c1.265-.455 3.405.065 3.265 1.74-.025 2.095.17 4.225-.135 6.305-1.03 1.595-3.98 1.345-4.53-.555-.33-1.745-.21-3.55-.13-5.315.025-.945.605-1.875 1.53-2.175zm.325 1.72c-.195 1.91-.31 3.9.11 5.785.255.055.76.175 1.01.23.7-2.185.46-4.565 0-6.775l-1.12.76zM.455 11.675c.305.055.92.17 1.225.23.485 1.19.595 2.495.85 3.745a48.35 48.35 0 00.97-3.835c.425-.005 1.285-.02 1.715-.025-.855 2.9-2.025 5.805-1.785 8.89-.425.005-1.275.01-1.7.015.47-3.13-1.28-5.94-1.275-9.02zm20.325.085c1.49-.03 2.98.1 4.395.6.635 1.485.525 3.125-.715 4.255.42 1.365.86 2.725 1.32 4.075-.47 0-1.42-.005-1.895-.01-.32-1.47-.62-2.955-1.2-4.345-.115 1.445-.1 2.895-.085 4.345-.455.005-1.365.01-1.82.015.01-2.98.01-5.955 0-8.935zm1.82 1.305c0 .885.01 1.765.035 2.645 1.21-.27 1.15-1.405 1.15-2.405l-1.185-.24zm7.75-1.27c.465 0 1.4.005 1.87.005-.015 2.54 0 5.08-.02 7.62.54-.025 1.085-.05 1.63-.08.05.455.095.905.135 1.36a435.62 435.62 0 00-3.615-.015c.01-2.965.01-5.925 0-8.89zM0 23.3c18.335.005 36.665.005 55 0v1.065c-18.335 0-36.665-.015-55 .005V23.3zm9.405 3.825c.825.22 2.23-.03 2.395 1.115.37 1.205-.9 1.715-1.73 2.17.02.4.05 1.195.07 1.59h-.86c.155-1.62.13-3.25.125-4.875zm.785.875c-.655.465-.065 1.875.72 1.28.69-.455.06-1.885-.72-1.28zm3.2-.66c1.21-.605 1.645.92 2.015 1.74-.73-.475-1.45-.96-2.195-1.415.57 1.21 1.32 2.32 2.1 3.4l-.755.935h-1.5c-.17-.515-.335-1.025-.505-1.54.71.405 1.43.8 2.155 1.185-.34-1.325-3-3.04-1.315-4.305zm2.945-.235c.69.155 1.46.13 2.065.535.615 1.365.28 2.95-.03 4.36h-2.155c.12-1.63.095-3.265.12-4.895zm.645.63c-.03 1.36.02 2.715.16 4.065 1.35-.765 1.5-3.635-.16-4.065zm10.405.135c.34-.915 1.835-.83 2.09.105.365 1.315.14 2.72-.175 4.025h-1.96c-.06-1.37-.36-2.8.045-4.13zm.585.35c.005 1.11-.705 3.15.895 3.37.05-1.245.05-2.49.015-3.735-.23.09-.685.275-.91.365zm3.78-.96c1.23-.365 1.42 1.125 1.665 1.97a42.084 42.084 0 00-1.64-1.495 15.392 15.392 0 00-.13 3.775c.685-.32 1.33-.715 1.995-1.065-.295.525-.605 1.04-.92 1.555h-1.755c.18-1.51-.835-3.805.785-4.74zM34.39 32c-.015-1.765.015-3.54.35-5.28.265 1 .47 2.015.755 3.01.445-.995.79-2.025 1.21-3.03.035 1.765-.01 3.535.11 5.3h-.41c-.29-.825-.58-1.66-1.085-2.39-.095.795-.175 1.59-.24 2.39h-.69zm3.86 0c-.19-1.79-.335-3.645.245-5.385.36 1.755.29 3.55.485 5.32 1.285-1.43.575-3.485 1.03-5.2.585 1.695.505 3.525.19 5.265h-1.95zm3.525-4.925c.785.225 1.86.09 2.295.945.485 1.715-2.08 2.17-1.85 3.98h-.495c.015-1.64.01-3.285.05-4.925zm.725.94c-.615.515.06 1.875.81 1.245.655-.495-.08-1.875-.81-1.245zm-20.31-.365c.925-.56 2.145-.28 3.18-.5.8 1.495.56 3.225.595 4.85h-.62c-.095-1.555-.085-3.125-.335-4.67-.975 1.375-.72 3.09-.745 4.67h-.645c-.005-1.325-.005-2.65-.02-3.97-.25.01-.755.025-1.005.035 0 1.31.005 2.625.01 3.935h-.84c.195-1.44-.09-2.97.425-4.35z"/></symbol><symbol id="icon-logo-2" viewBox="0 0 32 32"><path fill="var(--color1, #fff)" d="M10.125 14.269h.528c.016 1.094.013 2.186.006 3.28h-.547c-.01-1.091-.01-2.186.013-3.28z"/><path fill="var(--color5, #353535)" d="M11.574 2.246c1.325-.627 2.557-1.594 4.077-1.67 1.267-.125 2.499.33 3.565.979 1.683 1.008 3.542 1.651 5.427 2.17 1.171.301 2.182 1.053 2.912 2.003.893 1.139 1.04 2.627 1.539 3.942.499 1.51 1.373 2.858 1.984 4.32l.394-.518c.134.125.397.371.528.496v.95l-.189.083c-.531.288-.192 1.098-.285 1.594-.022 1.232-.8 2.246-1.341 3.299-.806 1.456-1.312 3.05-1.766 4.643-.509 1.898-2.131 3.414-4.042 3.846a21.947 21.947 0 00-5.782 2.426c-1.808 1.046-4.109.755-5.802-.387-1.686-1.011-3.562-1.626-5.443-2.154-1.878-.528-3.331-2.17-3.77-4.054a20.222 20.222 0 00-2.272-5.418c-1.059-1.664-1.05-3.914.006-5.578 1.078-1.757 1.821-3.686 2.349-5.674.477-1.786 1.917-3.29 3.699-3.792 1.43-.419 2.877-.829 4.211-1.507zm3.677-.969c-1.277.176-2.278 1.05-3.421 1.562a19.349 19.349 0 01-3.824 1.382C6.137 4.583 4.55 6.138 4.195 8.01c-.477 2-1.354 3.878-2.4 5.635-.845 1.424-.858 3.299-.01 4.723 1.046 1.757 1.93 3.632 2.403 5.629a4.737 4.737 0 001.504 2.621c1.331 1.334 3.363 1.242 4.973 2.054 1.83.598 3.312 2.17 5.328 2.147 1.946.083 3.398-1.386 5.13-2.013 1.366-.688 2.922-.851 4.304-1.482a4.806 4.806 0 002.461-3.229c.464-1.923 1.254-3.76 2.275-5.453 1.03-1.555 1.014-3.715-.006-5.27a19.468 19.468 0 01-1.994-4.435c-.31-2.096-1.638-4.186-3.827-4.65-2.035-.48-3.981-1.306-5.776-2.378-.982-.589-2.173-.851-3.309-.634zm16.083 12.845l.166.438.243-.157-.022-.333-.253-.141-.134.192z"/><path fill="var(--color5, #353535)" d="M9.293 8.694c.006-.717.787-.723 1.296-.912.122.211.365.637.486.851-.339-.294-.704-.381-1.094-.266-.198.746.912.89 1.082 1.533a9.578 9.578 0 01-.362.81c-.403.01-.803.022-1.203.035l-.384-.88c.451.39.973.678 1.587.678-.227-.8-1.107-1.114-1.408-1.85zm1.936-.732l1.114-.08a10.35 10.35 0 00-.019 2.883 55.256 55.256 0 00-.694-.016c.058-.851.067-1.702.064-2.554l-.464-.234zm1.609 0l1.107-.08a13.31 13.31 0 00-.026 2.829c.426-.246.845-.502 1.258-.765l-.355.778c-.531.006-1.062.016-1.59.026.07-.842.08-1.69.077-2.534-.115-.064-.352-.189-.47-.253zm2.205-.042c.189-.006.566-.016.755-.019.144.774.394 1.526.848 2.176.144-.714.24-1.434.288-2.16 1.014.032 2.029.006 3.043-.003.022.256.045.509.07.765-.352-.246-.707-.48-1.069-.707-.013.262-.045.79-.061 1.053.406.125.835.192 1.203.41l-1.242.003.131 1.194a9.548 9.548 0 001.446-.701c-.294 1.2-1.603.688-2.486.797l.448-.384a79.18 79.18 0 00-.054-2.285 77.476 77.476 0 00-.835-.006l-.032.467-.272-.074c-.17.867-.518 1.686-.896 2.48-.416-1.008-.803-2.029-1.286-3.005zm5.629.003c.445-.013.89-.029 1.334-.051.282.307.557.621.822.941l-.643.669c.317.48.627.963.902 1.466-.832-.304-1.283-1.082-1.683-1.821a3.47 3.47 0 01-.346 1.987c-.218-1.053-.099-2.147-.387-3.19zm.845 1.213c.65.464.906-.886.227-.95-.422.208-.499.525-.227.95zm-15.203.467c.022-.55.97-.566.97.003-.006.566-.96.554-.97-.003zm18.435-.278c.346-.48 1.094.134.701.57-.349.477-1.094-.131-.701-.57zM5.293 13.517l1.309-.003c-.01.57-.019 1.136-.032 1.706l.544.003c-.038-.56-.077-1.12-.122-1.68.317-.013.95-.035 1.267-.045 0 1.638-.01 3.28.01 4.918-.301 0-.902-.006-1.206-.01.013-.666.019-1.331.029-1.994a29.35 29.35 0 00-.509-.058c.003.685.01 1.373.016 2.058-.435 0-.87-.003-1.306-.003.016-1.632.016-3.261 0-4.893zm3.881.141c.774-.23 1.667-.506 2.346.112.547 1.078.416 2.368.301 3.536-.019 1.494-2.518 1.642-2.87.269-.154-1.302-.166-2.653.224-3.917zm.951.611a115.735 115.735 0 00-.013 3.28h.547c.006-1.094.01-2.186-.006-3.28h-.528zm1.958-.72a57.513 57.513 0 013.053-.029l-.01.963-.854.026c.006 1.302.003 2.605.016 3.904-.426.003-.854.003-1.28.003.006-1.264 0-2.528.019-3.792-.656-.022-.864-.509-.944-1.075zm4.64-.048c.726.013 1.459-.016 2.179.09-.013.23-.042.688-.054.918l-.829-.026c-.016.17-.042.502-.054.669.797.218.97 1.213.026 1.382.01.627.019 1.251.026 1.878h-1.299c.022-1.638.016-3.277.006-4.912zm2.624.921c.214-1.405 2.522-1.414 2.851-.074.118 1.13.035 2.266.042 3.398-.637.915-2.294 1.117-2.829.006-.227-1.088-.166-2.23-.064-3.331zm1.098-.092c-.01 1.053-.006 2.109-.01 3.162.144.019.429.061.573.08.006-1.12.01-2.237-.013-3.357l-.55.115zm2.406-.82h1.306c-.016 1.635-.016 3.27-.003 4.902-.435.003-.867.003-1.302.003.013-1.635.013-3.27 0-4.906zm1.933.007h1.309a261.86 261.86 0 00-.013 3.862c.192.006.573.022.765.029-.01.336-.016.672-.026 1.008l-2.035-.003c.013-1.632.016-3.264 0-4.896zm-13.792 7.145c1.872-.31 3.782-.09 5.67-.15 1.418.032 2.854-.122 4.256.15-3.306.077-6.621.07-9.926 0zM7.77 24.096c-.01-.714.266-1.526 1.136-1.242-.547.474-.592 1.216-.768 1.869l.531.074c.237-.813.707-1.482 1.661-1.21l-.33.48c.179-.022.541-.067.723-.093.374-.269.813-.397 1.258-.493l.013 1.046c.202-.275.608-.819.813-1.091.314.179.637.349.918.582.051.464-.31.816-.499 1.2-.394-.179-.781-.368-1.171-.554-.211.509-.435 1.018-.717 1.494-.198-.17-.595-.506-.794-.675l1.088-.048a5.842 5.842 0 01-1.405-.909l-.237.445c-.88.186-1.789.035-2.678.074.15-.317.301-.634.458-.95zm1.609-.048c-.192.547-.038.746.464.589.182-.55.029-.746-.464-.589zm1.93-.058c-.416.218-.435.448-.048.691.419-.221.435-.451.048-.691zm1.625.068c-.413.234-.413.458 0 .675.41-.237.41-.461 0-.675zm2.378-1.197c.112-.029.33-.09.442-.118.029.352.093 1.056.122 1.408.301-.547.595-1.104.973-1.606-.006.822-.086 1.651.01 2.474.099-.269.298-.806.394-1.075.23-.163.458-.323.688-.483.25.227.502.458.749.691.266-.208.531-.413.797-.618l.432.115.272.429-1.155.128c.243.237.726.714.966.95-.89-.474-1.824-.378-2.739-.077-.237-.019-.71-.054-.944-.074-.058-.259-.166-.778-.221-1.037-.074.269-.218.806-.291 1.075l-.362-1.04-.371.938-.47.371c.307-.797.57-1.61.71-2.451zm2.522 1.881c.467-.262.48-.531.035-.816-.47.266-.483.538-.035.816z"/><path fill="var(--color5, #353535)" d="M20.47 22.864l.515-.077-.128.797c.493.138.995.234 1.507.237-.006.394 0 .787.022 1.181.23-.544.464-1.085.701-1.626l.17 1.59c.173-.445.317-.902.464-1.357.272-.006.819-.022 1.091-.029.493 1.2-.858 1.638-1.45 2.438l.115-.941c-.736-.154-1.792.333-2.301-.33.134-.07.41-.211.544-.282-.314-.17-.621-.352-.922-.547.032.272.096.822.131 1.094l-.429-.262-.317.406-.195-.349c.362-.589.422-1.277.48-1.946zm3.725 1.888c.461-.269.474-.544.032-.826-.464.272-.477.547-.032.826z"/></symbol><symbol id="icon-logo-1" viewBox="0 0 46 32"><path fill="var(--color1, #fff)" d="M34.651 5.145c.112.112.112.112 0 0zM12.546 29.943c.278.229.278.229 0 0zm17.276 1.413c.474-.183.765.033.873.644h-.711c-.042-.162-.125-.482-.162-.644z"/><path fill="var(--color6, #343434)" d="M15.111 0h.578c.49.918.465 1.916.212 2.901.644.611.956 1.442 1.209 2.273a79.1 79.1 0 00.823-2.494c.137.15.416.445.557.59.278-.175.835-.528 1.114-.707l-.029 1.721c.461-.519.86-1.11 1.413-1.538.781-.345 1.567.245 2.302.461l.686-.582a81.15 81.15 0 01-.278-1.155c.499-.05 1.002-.054 1.504-.067l-.91.977a86.297 86.297 0 00-.54 2.913c.79-.948 1.496-1.978 2.498-2.722.582-1.006 1.047-2.909 2.577-2.377.22 1.986-1.5 3.408-1.858 5.265.869-.677 1.484-1.629 2.365-2.286.478-.058.869.283 1.259.499-.075.806-.873 1.135-1.434 1.55.029.22.091.661.121.881-1.995-.544-4.064-.532-6.109-.586-.158-.761-.208-1.542-.316-2.311-.511.744-.499 2.361-1.654 2.431-.923-.374-1.721-.997-2.552-1.534-.112.598-.224 1.201-.341 1.799a49.58 49.58 0 01-1.014-.549c-1.126.636-2.39 1.035-3.69 1.072-.208-.249-.632-.744-.839-.989-.075.524-.154 1.043-.233 1.567-.374-.291-.752-.578-1.13-.869-.008-.839.033-1.683.087-2.523.445 1.268 1.571 1.912 2.818 2.178-.046-1.962-.378-4.069.806-5.793zm-.167 2.361c.64.233.981-1.259.366-1.413-.482.224-.648.977-.366 1.413zm12.127 1.122c.611-.852 1.068-1.824 1.176-2.88-.781.765-1.047 1.833-1.176 2.88zM20.8 5.137c1.184-.154 1.085-1.376.852-2.236-.698.561-.839 1.392-.852 2.236zm4.397.12c1.047-.258 1.168-1.189 1.147-2.095a3.841 3.841 0 00-1.147 2.095zM15.086 3.99c.008.619-.075 1.272.204 1.854.777-.349.785-1.164.885-1.887l-1.089.033zm14.055-.042c-.229.594-.046.769.549.536.233-.594.05-.773-.549-.536zm-23.639.644c.806-1.704 3.129-2.73 4.696-1.38-.208.316-.42.628-.628.943-.407-1.617-2.922-.806-3.017.611.827.087 1.654.158 2.477.253-.578.761-1.637 1.076-2.02 1.978.224 1.401 1.783.528 2.423-.058 1.051-.578.748-1.837.91-2.818 1.114.374.777 1.916 1.018 2.838-1.579.145-2.664 1.845-4.33 1.492-1.243-.544-.997-1.991-.104-2.751-.486-.353-.96-.727-1.425-1.11z"/><path fill="var(--color6, #343434)" d="M29.282 5.993c1.13-.603 1.837-1.625 2.398-2.735.05.253.15.752.199 1.006.416-.191.835-.378 1.255-.561-.112.615-.229 1.226-.341 1.837.748-.362 1.38-1.334 2.298-1.118a9.8 9.8 0 01.898.902c-.698.474-1.421.91-2.144 1.342.353-.021 1.051-.066 1.405-.091.636-.707 1.425-1.222 2.365-1.413.607-.931 1.388-1.729 2.402-2.215.249.432.856.856.465 1.392-.69 1.326-1.978 2.19-2.884 3.35.428.054 1.292.17 1.721.229-.495.258-.997.507-1.504.744-.212-.191-.64-.573-.856-.769-1.401-.316-3.121-.32-4.023-1.621a31.162 31.162 0 01-.985-1.247c-.291.453-.598.902-.914 1.342a28.967 28.967 0 01-1.754-.374zm8.856.208c.839-.69 1.563-1.542 1.87-2.602-.885.652-1.479 1.588-1.87 2.602zm-3.487-1.056c.112.112.112.112 0 0zm1.343 2.373c.989-.125 1.317-.952 1.475-1.812-.702.416-1.297.985-1.475 1.812zM12.999 3.94l.349.05c.291.524.158.815-.399.869l.05-.918zm3.691 5.303c.831-.607 1.878-.432 2.843-.445 2.78.029 5.561.008 8.341-.004.586-.079 1.118.158 1.612.445-4.26.104-8.532-.021-12.796.004zm1.716.199c2.585.017 5.17-.042 7.755.017.748-.025 1.463.216 2.119.553-3.308.224-6.633-.062-9.941.162l.067-.731zm-3.636 3.37c1.787-.079 3.836-.503 5.328.761 2.863 2.244 1.953 7.435-1.417 8.702-1.442.727-3.038.145-4.542.029-.931.004-1.7-.607-2.252-1.305-2.099-2.726-.623-7.53 2.884-8.187zm1.633 1.135c-2.223.798-2.39 3.62-1.812 5.561.328 1.226 1.646 1.92 2.83 1.953 1.184-.378 2.402-1.405 2.286-2.764-.037-1.322.303-2.926-.785-3.936-.661-.565-1.629-1.164-2.518-.815zm22.487-1.122c1.708-.05 3.636-.54 5.166.486.823.578 1.712 1.405 1.642 2.506-.104 1.754.511 3.89-.968 5.236-1.762 2.003-4.779 1.808-7.094 1.093-3.828-1.891-2.797-8.37 1.255-9.322zm1.447 1.342c-1.858.827-1.787 3.217-1.542 4.912.116 1.056 1.014 1.708 1.841 2.236 1.031-.328 2.506-.083 3.038-1.259.827-1.625.744-3.782-.357-5.261-.765-.719-2.007-1.355-2.98-.628zM0 12.995c.353.029 1.064.091 1.421.121-.129.582-.927.935-1.421.561v-.682z"/><path fill="var(--color6, #343434)" d="M1.255 12.829c1.6.233 4.185-.943 4.983.993-.362.042-1.085.129-1.446.17-.054 2.252-.091 4.509-.025 6.762-.075.91 1.11.482 1.629.611.441-.831.457-1.837 1.006-2.614.212.158.64.47.856.623.241-.154.727-.461.972-.615.79 1.13.328 2.543.096 3.773-2.564-.154-5.22.349-7.722-.266l.145-.582c.253-.121.761-.37 1.014-.49.017-2.348.104-4.696-.062-7.036a5.015 5.015 0 01-1.446-1.33zm23.83 1.01c.927-.997 2.361-.815 3.582-1.06 1.33-.166 2.909-.278 3.973.702.582.482.686 1.351.308 1.991a8.406 8.406 0 01-1.513.532l-.162-1.446-.835-.619c-1.355-.021-2.992.312-3.466 1.783-.449 1.554-.482 3.524.682 4.788.993.96 2.481.752 3.74.756-.004-.74-.025-1.479-.042-2.219l-1.654-.549-.199-.657c.029.536.062 1.072.104 1.608-.237-.528-1.633-1.164-1.126-1.7 1.908-.158 3.836-.096 5.748-.021a11.047 11.047 0 01-.964 1.471c-.154.856.191 2.028-.744 2.531-1.804 1.33-4.197.918-6.259.632-3.582-1.035-3.815-6.363-1.172-8.524z"/><path fill="var(--color6, #343434)" d="M1.392 13.569l1.051.69c.403 2.252.1 4.571.158 6.849-.287.008-.86.017-1.147.025.021-2.523.091-5.045-.062-7.564zm16.15 1.055c.806-.586 1.459.532 1.795 1.135.229 1.351.328 2.809-.104 4.123-.436.461-.981 1.409-1.691.823.191-.823.977-1.471.873-2.402.258-1.334-.403-2.531-.873-3.678zm12.584.906c-.287-.495-.224-.898.187-1.205.611-.025.989.831.623 1.297-.204-.025-.607-.066-.81-.091zm11.931-.906c.831-.482 1.326.594 1.621 1.197.644 1.928.457 4.97-2.086 5.282 1.243-1.691 1.617-4.118.47-5.951 0-.133-.004-.395-.004-.528zm-11.948 6.4c-.125-.794-.187-1.6-.299-2.394 1.363.187 1.442 1.342 1.525 2.423-.308-.004-.918-.021-1.226-.029zM0 21.232l1.214.432c.108.266.328.79.436 1.056-.561-.17-1.11-.37-1.65-.59v-.898zm17.883 4.056c3.429-.1 6.87-.108 10.302.017-1.305.952-3.005.465-4.501.598-1.928-.133-4.035.366-5.802-.615z"/><path fill="var(--color6, #343434)" d="M16.686 26.086c2.186-.22 4.376.062 6.562-.004 2.082.058 4.164-.187 6.242-.008-.848.615-1.912.428-2.888.449-2.772-.025-5.544 0-8.312 0-.582.067-1.11-.17-1.604-.436zm-5.012 4.023c-.017-1.126 1.247-.694 1.982-.765-.179.258-.528.777-.707 1.035.199.22.598.661.794.881-.224.183-.677.553-.902.74h-1.147c0-.262-.004-.79-.004-1.056.436.287.877.565 1.322.848-.449-.561-.935-1.089-1.338-1.683zm.872-.166c.278.229.278.229 0 0zm1.808-.811c.827.208 2.045.012 2.406 1.01.308.756-.362 1.355-.815 1.858h-1.583c.058-.956.042-1.912-.008-2.868zm.773 2.623c.445-.362 1.213-.619.985-1.346a166.1 166.1 0 00-.869-.972 21.642 21.642 0 00-.116 2.319zm4.272-2.569c.187.046.561.133.748.175.121.278.357.831.478 1.11.37-.519.744-1.039 1.122-1.55.166 1.031.303 2.065.561 3.079H21.24c.125-.482.249-.96.378-1.442-.32.278-.64.544-.972.802-.266-.195-.802-.582-1.068-.773.166.353.499 1.06.669 1.413h-1.23c.229-.923.32-1.87.382-2.814zm3.732.591c.536-.756 1.829-.702 2.203.187.519.711-.278 1.484-.677 2.036h-1.392c-.158-.719-.619-1.529-.133-2.223zm.52.083c-.241.628-.187 1.895.785 1.583.644-.64.349-2.14-.785-1.583zm3.158-.487c.761-.478 1.326.345 1.808.806a84.824 84.824 0 01-1.982-.353l.249 1.396a292.8 292.8 0 011.588.274l-.815.503H26.51c-.461-.827-.744-2.103.299-2.627zm3.45-.058c.81-.05 1.617-.1 2.427-.145-.012.727-.033 1.455.012 2.182 1.434.411.731-1.317.831-2.136.233.029.706.079.943.108-.204.898-.395 1.804-.702 2.676h-1.421c-.308-.682-.008-1.791-.765-2.161-.337.096-1.006.291-1.342.387.436.594.864 1.193 1.322 1.775h-.869c-.108-.611-.399-.827-.873-.644.037.162.121.482.162.644H28.92c.141-.923.125-1.862.1-2.793.204.029.615.083.819.112l.067 1.301c.087-.324.266-.977.353-1.305zm-21.262-.216c.761.208 1.671.191 2.228.839-.195.773-.931 1.168-1.479 1.662.195.1.582.299.773.399H9.035a68.467 68.467 0 00-.037-2.901zm.748.757c-.224.686 0 .923.665.706.224-.677.004-.914-.665-.706zm25.413-.761c.64.116 1.272.262 1.903.428.632 1.039-.719 1.529-1.255 2.19l.914.287h-1.534a62.53 62.53 0 00-.029-2.905zm.703.748c-.224.682-.004.918.669.702.22-.677 0-.91-.669-.702z"/></symbol><symbol id="icon-MeStore" viewBox="0 0 184 32"><path d="M.848 1.568c2.672 0 5.344.048 8.016.16 3.008 5.104 6.128 10.16 9.264 15.2 3.04-5.104 6.08-10.224 9.12-15.328H35.2v28.8h-8.736c-.016-4.384 0-8.768-.048-13.152-2.112 3.456-4.176 6.96-6.288 10.416-1.088-.016-3.248-.032-4.336-.048-2.08-3.28-4.112-6.592-6.192-9.872V30.4H.848c0-9.616.016-19.216 0-28.832zm69.456 1.408C76.352-.672 83.728.96 90.048 2.928a928.637 928.637 0 00-2.8 7.072c-4.352-1.408-8.944-2.064-13.344-.464 4.608 2.624 10.128 3.104 14.592 5.92 4.416 3.536 2.992 11.072-1.792 13.568-6.512 3.936-14.368 1.792-21.12-.288.944-2.464 1.888-4.944 2.816-7.408 4.496 1.744 9.28 2.576 14.096 2.112-3.312-5.232-11.04-3.312-14.832-7.968-3.184-3.84-1.536-10.08 2.64-12.496zm24.928-.208c3.056 0 6.128 0 9.184.016v6.368c1.2 0 3.6.032 4.8.048 0 2.256.016 4.512.016 6.768-1.216.016-3.632.064-4.848.096 0 2.464.064 4.944.176 7.408 1.024 0 3.04.016 4.048.016.72 2.256 1.44 4.512 2.16 6.784-4.288.304-9.376 1.504-12.944-1.712-3.248-2.88-2.304-7.632-2.8-11.488-3.36-1.296-2.976-4.816-3.328-7.76l3.616-.256c-.032-2.096-.064-4.192-.08-6.288zm54.832 5.952c2.08-.656 4.16-1.28 6.24-1.888l.096 7.68c-2.064.928-4.848.896-6.288 2.832-1.04 4.256-.48 8.704-.608 13.056h-9.136c.016-7.728-.016-15.472.032-23.2 3.232.4 6.464.88 9.664 1.52zM38.768 21.856C35.984 12.32 47.136 4.304 55.776 7.952c6 1.44 7.776 7.824 8.288 13.2-5.712.064-11.44-.032-17.136.448 3.104 2.528 6.848 2.48 10.48 1.232a1357.78 1357.78 0 014.848 4.784c-7.44 5.168-20.816 4.224-23.488-5.76zm7.936-5.264c3.024.144 6.08.16 9.12.048-.976-.768-2.912-2.288-3.872-3.056-2.208-.256-3.584 1.984-5.248 3.008zm72.192-8.352c8.176-3.648 19.808 2.128 18.656 11.904-1.008 11.888-19.28 14.32-24.8 4.528-3.648-5.856-.464-14.4 6.144-16.432zm3.36 6.976c-3.424 2.496-1.168 9.92 3.536 8.24 4.848-2.272 1.392-12.144-3.536-8.24zm35.488 5.696c-2-10.176 10.704-17.136 19.008-12.16 4.992 1.984 5.744 7.808 6.576 12.416-5.76.032-11.536-.032-17.296.496 3.216 2.32 6.96 2.464 10.624 1.248a437.108 437.108 0 014.704 4.736c-7.664 5.408-21.664 3.856-23.616-6.736zm7.92-4.432c3.152.192 6.336.24 9.504.16-1.408-1.056-2.768-2.208-4.288-3.088-2.048.192-3.52 1.936-5.216 2.928z"/></symbol><symbol id="icon-star" viewBox="0 0 26 28"><path d="M26 10.109c0 .281-.203.547-.406.75l-5.672 5.531 1.344 7.812c.016.109.016.203.016.313 0 .406-.187.781-.641.781a1.27 1.27 0 01-.625-.187L13 21.422l-7.016 3.687c-.203.109-.406.187-.625.187-.453 0-.656-.375-.656-.781 0-.109.016-.203.031-.313l1.344-7.812L.39 10.859c-.187-.203-.391-.469-.391-.75 0-.469.484-.656.875-.719l7.844-1.141 3.516-7.109c.141-.297.406-.641.766-.641s.625.344.766.641l3.516 7.109 7.844 1.141c.375.063.875.25.875.719z"/></symbol><symbol id="icon-star-o" viewBox="0 0 26 28"><path d="M17.766 15.687l4.781-4.641-6.594-.969L13 4.108l-2.953 5.969-6.594.969 4.781 4.641-1.141 6.578 5.906-3.109 5.891 3.109zM26 10.109c0 .281-.203.547-.406.75l-5.672 5.531 1.344 7.812c.016.109.016.203.016.313 0 .422-.187.781-.641.781a1.27 1.27 0 01-.625-.187L13 21.422l-7.016 3.687c-.203.109-.406.187-.625.187-.453 0-.656-.375-.656-.781 0-.109.016-.203.031-.313l1.344-7.812L.39 10.859c-.187-.203-.391-.469-.391-.75 0-.469.484-.656.875-.719l7.844-1.141 3.516-7.109c.141-.297.406-.641.766-.641s.625.344.766.641l3.516 7.109 7.844 1.141c.375.063.875.25.875.719z"/></symbol><symbol id="icon-plane" viewBox="0 0 22 28"><path d="M21.5 2.5c1 1 0 3.5-1.5 5l-2.516 2.516 2.5 10.875a.513.513 0 01-.187.516l-2 1.5a.477.477 0 01-.297.094c-.031 0-.063 0-.109-.016a.444.444 0 01-.328-.25l-4.359-7.938-4.047 4.047.828 3.031a.51.51 0 01-.125.484l-1.5 1.5a.52.52 0 01-.359.141H7.47a.507.507 0 01-.375-.203l-2.953-3.938-3.938-2.953c-.125-.078-.187-.219-.203-.359s.047-.281.141-.391l1.5-1.516a.52.52 0 01.359-.141c.047 0 .094 0 .125.016l3.031.828 4.047-4.047-7.938-4.359A.55.55 0 011 6.562a.533.533 0 01.141-.422l2-2c.125-.109.313-.172.469-.125l10.391 2.484 2.5-2.5c1.5-1.5 4-2.5 5-1.5z"/></symbol><symbol id="icon-shopping-cart" viewBox="0 0 26 28"><path d="M10 24c0 1.094-.906 2-2 2s-2-.906-2-2 .906-2 2-2 2 .906 2 2zm14 0c0 1.094-.906 2-2 2s-2-.906-2-2 .906-2 2-2 2 .906 2 2zm2-17v8c0 .5-.391.938-.891 1L8.797 17.906c.078.359.203.719.203 1.094 0 .359-.219.688-.375 1H23c.547 0 1 .453 1 1s-.453 1-1 1H7c-.547 0-1-.453-1-1 0-.484.703-1.656.953-2.141L4.187 6H1c-.547 0-1-.453-1-1s.453-1 1-1h4c1.047 0 1.078 1.25 1.234 2H25c.547 0 1 .453 1 1z"/></symbol><symbol id="icon-arrow-circle-left" viewBox="0 0 24 28"><path d="M20 15v-2c0-.547-.453-1-1-1h-7.844l2.953-2.953c.187-.187.297-.438.297-.703s-.109-.516-.297-.703l-1.422-1.422c-.187-.187-.438-.281-.703-.281s-.516.094-.703.281l-7.078 7.078c-.187.187-.281.438-.281.703s.094.516.281.703l7.078 7.078c.187.187.438.281.703.281s.516-.094.703-.281l1.422-1.422c.187-.187.281-.438.281-.703s-.094-.516-.281-.703L11.156 16H19c.547 0 1-.453 1-1zm4-1c0 6.625-5.375 12-12 12S0 20.625 0 14 5.375 2 12 2s12 5.375 12 12z"/></symbol><symbol id="icon-arrow-circle-right" viewBox="0 0 24 28"><path d="M20.078 14a.98.98 0 00-.281-.703l-7.078-7.078c-.187-.187-.438-.281-.703-.281s-.516.094-.703.281L9.891 7.641c-.187.187-.281.438-.281.703s.094.516.281.703L12.844 12H5c-.547 0-1 .453-1 1v2c0 .547.453 1 1 1h7.844l-2.953 2.953c-.187.187-.297.438-.297.703s.109.516.297.703l1.422 1.422c.187.187.438.281.703.281s.516-.094.703-.281l7.078-7.078a.981.981 0 00.281-.703zM24 14c0 6.625-5.375 12-12 12S0 20.625 0 14 5.375 2 12 2s12 5.375 12 12z"/></symbol><symbol id="icon-life-bouy" viewBox="0 0 28 28"><path d="M14 0c7.734 0 14 6.266 14 14s-6.266 14-14 14S0 21.734 0 14 6.266 0 14 0zm0 2c-2.031 0-3.953.516-5.641 1.406l3.031 3.031a7.998 7.998 0 015.218 0l3.031-3.031A12.059 12.059 0 0013.998 2zM3.406 19.641l3.031-3.031a7.998 7.998 0 010-5.218L3.406 8.361C2.515 10.048 2 11.97 2 14.002s.516 3.953 1.406 5.641zM14 26c2.031 0 3.953-.516 5.641-1.406l-3.031-3.031a8.024 8.024 0 01-2.609.438 8.07 8.07 0 01-2.609-.438l-3.031 3.031A12.059 12.059 0 0014.002 26zm0-6c3.313 0 6-2.688 6-6s-2.688-6-6-6-6 2.688-6 6 2.688 6 6 6zm7.562-3.391l3.031 3.031c.891-1.687 1.406-3.609 1.406-5.641s-.516-3.953-1.406-5.641l-3.031 3.031c.281.828.438 1.703.438 2.609s-.156 1.781-.438 2.609z"/></symbol><symbol id="icon-search1" viewBox="0 0 32 32"><path d="M19.427 20.427a8.5 8.5 0 112-2l5.585 5.585c.55.55.546 1.431 0 1.976l-.023.023a1.398 1.398 0 01-1.976 0l-5.585-5.585zM14.5 20a6.5 6.5 0 100-13 6.5 6.5 0 000 13z"/></symbol><symbol id="icon-clock" viewBox="0 0 16 16"><path d="M9 7V4H7v5h4V7zM8 0a8 8 0 100 16A8 8 0 008 0zm0 14A6 6 0 018 2a6 6 0 010 12z"/></symbol></defs></svg>